<?xml version="1.0" encoding="UTF-8" standalone="no"?>
<svg
   viewBox="0 0 16 16"
   preserveAspectRatio="xMidYMid meet"
   width="16"
   height="16"
   version="1.1"
   id="svg1"
   xmlns="http://www.w3.org/2000/svg"
   xmlns:svg="http://www.w3.org/2000/svg"
   xmlns:rdf="http://www.w3.org/1999/02/22-rdf-syntax-ns#"
   xmlns:dc="http://purl.org/dc/elements/1.1/">
  <defs
     id="defs1" />
  <!-- GNOME Icon Development Kit: icons/circle-check.svg; static outline export, 2026-09-10. CC0-1.0. -->
  <title
     id="title1">circle-check</title>
  <path
     style="baseline-shift:baseline;display:inline;overflow:visible;vector-effect:none;fill:#2e3436;stroke-linecap:round;stroke-linejoin:round;enable-background:accumulate;stop-color:#000000;stop-opacity:1;opacity:1"
     d="m 11.96875,5.59375 a 1,1 0 0 0 -1.414062,0.021484 L 7.3808594,8.8847656 5.6894531,7.2753906 a 1,1 0 0 0 -1.4140625,0.035156 1,1 0 0 0 0.035156,1.4140625 l 2.4101562,2.2929686 a 1.0001,1.0001 0 0 0 1.40625,-0.0293 L 11.990234,7.0078125 A 1,1 0 0 0 11.96875,5.59375 Z"
     id="check" />
  <path
     style="baseline-shift:baseline;display:inline;overflow:visible;vector-effect:none;fill:#2e3436;stroke-linecap:round;stroke-linejoin:round;enable-background:accumulate;stop-color:#000000;stop-opacity:1;opacity:1"
     d="M 8,0 C 3.5935668,0 0,3.5935668 0,8 c 0,4.406434 3.593567,8 8,8 4.406434,0 8,-3.593566 8,-8 C 16,3.593567 12.406434,0 8,0 Z m 0,2 c 3.325555,0 6,2.6744469 6,6 0,3.325555 -2.674445,6 -6,6 C 4.6744469,14 2,11.325555 2,8 2,4.6744472 4.6744472,2 8,2 Z"
     id="circle" />
  <metadata
     id="metadata1">
    <rdf:RDF>
      <Work>
        <license
           rdf:resource="https://creativecommons.org/publicdomain/zero/1.0/" />
        <dc:subject>
          <rdf:Bag>
            <rdf:li>selection-mode checkmark round circle</rdf:li>
          </rdf:Bag>
        </dc:subject>
        <dc:creator>
          <Agent>
            <dc:title>Jakub Steiner</dc:title>
          </Agent>
        </dc:creator>
      </Work>
    </rdf:RDF>
  </metadata>
</svg>
