<?xml version="1.0" encoding="UTF-8" standalone="no"?>
<svg
   viewBox="0 0 16 16"
   preserveAspectRatio="xMidYMid meet"
   width="16"
   height="16"
   version="1.1"
   id="svg1"
   xmlns="http://www.w3.org/2000/svg"
   xmlns:svg="http://www.w3.org/2000/svg"
   xmlns:rdf="http://www.w3.org/1999/02/22-rdf-syntax-ns#"
   xmlns:dc="http://purl.org/dc/elements/1.1/">
  <defs
     id="defs1" />
  <!-- GNOME Icon Development Kit: icons/info-outline.svg; static outline export, 2026-09-10. CC0-1.0. -->
  <title
     id="title1">info-outline</title>
  <path
     style="baseline-shift:baseline;display:inline;overflow:visible;vector-effect:none;fill:#2e3436;stroke-linecap:round;stroke-linejoin:round;enable-background:accumulate;stop-color:#000000;stop-opacity:1;opacity:1"
     d="M 8,0 C 3.5935668,0 0,3.5935668 0,8 c 0,4.406434 3.5935669,8 8,8 4.406434,0 8,-3.593566 8,-8 C 16,3.5935669 12.406434,0 8,0 Z m 0,2 c 3.325553,0 6,2.6744471 6,6 0,3.325553 -2.674447,6 -6,6 C 4.6744471,14 2,11.325553 2,8 2,4.6744472 4.6744472,2 8,2 Z M 8,4 A 1,1 0 0 0 7,5 v 0.00977 a 1,1 0 0 0 1,1 1,1 0 0 0 1,-1 V 5 A 1,1 0 0 0 8,4 Z M 7,7 A 1,1 0 0 0 6,8 1,1 0 0 0 7,9 v 2 a 1,1 0 0 0 1,1 1,1 0 0 0 1,-1 V 8 A 1.0001,1.0001 0 0 0 8,7 Z"
     id="path0" />
  <metadata
     id="metadata1">
    <rdf:RDF>
      <Work>
        <license
           rdf:resource="https://creativecommons.org/publicdomain/zero/1.0/" />
        <dc:subject>
          <rdf:Bag>
            <rdf:li>preferences-system-details info information info-outline help-about adw widget-about libadwaita</rdf:li>
          </rdf:Bag>
        </dc:subject>
        <dc:creator>
          <Agent>
            <dc:title>Jakub Steiner</dc:title>
          </Agent>
        </dc:creator>
      </Work>
    </rdf:RDF>
  </metadata>
</svg>
